<?xml version="1.0" encoding="UTF-8"?>
<svg width="95px" height="95px" viewBox="0 0 95 95" version="1.1" xmlns="http://www.w3.org/2000/svg" xmlns:xlink="http://www.w3.org/1999/xlink">
    <!-- Generator: Sketch 52.1 (67048) - http://www.bohemiancoding.com/sketch -->
    <title>Combined Shape</title>
    <desc>Created with Sketch.</desc>
    <defs>
        <linearGradient x1="0%" y1="0%" x2="101.999998%" y2="100.999999%" id="linearGradient-1">
            <stop stop-color="#3023AE" offset="0%"></stop>
            <stop stop-color="#C86DD7" offset="100%"></stop>
        </linearGradient>
    </defs>
    <g id="Page-1" stroke="none" stroke-width="1" fill="none" fill-rule="evenodd">
        <g id="Artboard" transform="translate(-110.000000, -99.000000)" fill="url(#linearGradient-1)">
            <path d="M140.66692,99 C138.219694,102.686008 136.996094,107.144322 136.996094,112.375 C136.996094,116.398458 137.777336,119.914047 139.339844,122.921875 C140.902352,125.929703 142.992174,128.566395 145.609375,130.832031 C148.226576,133.097668 152.152318,135.460925 157.386719,137.921875 C162.972684,140.578138 166.673819,142.511713 168.490234,143.722656 C170.30665,144.9336 171.683589,146.193353 172.621094,147.501953 C173.558598,148.810553 174.027344,150.304679 174.027344,151.984375 C174.027344,154.992203 172.962901,157.257805 170.833984,158.78125 C168.705067,160.304695 165.648457,161.066406 161.664062,161.066406 C158.343733,161.066406 154.681661,160.539068 150.677734,159.484375 C146.673808,158.429682 141.781279,156.613294 136,154.035156 L136,170.910156 C143.031285,174.347673 151.117142,176.066406 160.257812,176.066406 C170.179737,176.066406 177.9238,173.839866 183.490234,169.386719 C189.056668,164.933571 191.839844,158.839882 191.839844,151.105469 C191.839844,145.519503 190.355484,140.802754 187.386719,136.955078 C184.417954,133.107403 178.929728,129.26955 170.921875,125.441406 C164.867157,122.550767 161.029305,120.548834 159.408203,119.435547 C157.787101,118.32226 156.605472,117.169928 155.863281,115.978516 C155.12109,114.787103 154.75,113.390633 154.75,111.789062 C154.75,109.210925 155.66796,107.121102 157.503906,105.519531 C159.339853,103.917961 161.976545,103.117187 165.414062,103.117187 C168.304702,103.117187 171.244126,103.488278 174.232422,104.230469 C177.220718,104.97266 180.999977,106.281241 185.570312,108.15625 L189.369586,99 L205,99 L205,194 L132,194 C119.849736,194 110,184.150264 110,172 L110,99 L140.66692,99 Z" id="Combined-Shape"></path>
        </g>
    </g>
</svg>