<?xml version="1.0" encoding="UTF-8"?>
<svg width="95px" height="95px" viewBox="0 0 95 95" version="1.1" xmlns="http://www.w3.org/2000/svg" xmlns:xlink="http://www.w3.org/1999/xlink">
    <!-- Generator: Sketch 52.1 (67048) - http://www.bohemiancoding.com/sketch -->
    <title>Combined Shape</title>
    <desc>Created with Sketch.</desc>
    <g id="Page-1" stroke="none" stroke-width="1" fill="none" fill-rule="evenodd">
        <g id="Artboard" transform="translate(-466.000000, -99.000000)" fill="#FFFFFF">
            <path d="M496.66692,99 C494.219694,102.686008 492.996094,107.144322 492.996094,112.375 C492.996094,116.398458 493.777336,119.914047 495.339844,122.921875 C496.902352,125.929703 498.992174,128.566395 501.609375,130.832031 C504.226576,133.097668 508.152318,135.460925 513.386719,137.921875 C518.972684,140.578138 522.673819,142.511713 524.490234,143.722656 C526.30665,144.9336 527.683589,146.193353 528.621094,147.501953 C529.558598,148.810553 530.027344,150.304679 530.027344,151.984375 C530.027344,154.992203 528.962901,157.257805 526.833984,158.78125 C524.705067,160.304695 521.648457,161.066406 517.664062,161.066406 C514.343733,161.066406 510.681661,160.539068 506.677734,159.484375 C502.673808,158.429682 497.781279,156.613294 492,154.035156 L492,170.910156 C499.031285,174.347673 507.117142,176.066406 516.257812,176.066406 C526.179737,176.066406 533.9238,173.839866 539.490234,169.386719 C545.056668,164.933571 547.839844,158.839882 547.839844,151.105469 C547.839844,145.519503 546.355484,140.802754 543.386719,136.955078 C540.417954,133.107403 534.929728,129.26955 526.921875,125.441406 C520.867157,122.550767 517.029305,120.548834 515.408203,119.435547 C513.787101,118.32226 512.605472,117.169928 511.863281,115.978516 C511.12109,114.787103 510.75,113.390633 510.75,111.789062 C510.75,109.210925 511.66796,107.121102 513.503906,105.519531 C515.339853,103.917961 517.976545,103.117188 521.414062,103.117188 C524.304702,103.117188 527.244126,103.488278 530.232422,104.230469 C533.220718,104.97266 536.999977,106.281241 541.570312,108.15625 L545.369586,99 L561,99 L561,194 L488,194 C475.849736,194 466,184.150264 466,172 L466,99 L496.66692,99 Z" id="Combined-Shape"></path>
        </g>
    </g>
</svg>