<?xml version="1.0" standalone="no"?>
<!DOCTYPE svg PUBLIC "-//W3C//DTD SVG 20010904//EN"
 "http://www.w3.org/TR/2001/REC-SVG-20010904/DTD/svg10.dtd">
<svg version="1.0" xmlns="http://www.w3.org/2000/svg"
 width="700.000000pt" height="700.000000pt" viewBox="0 0 700.000000 700.000000"
 preserveAspectRatio="xMidYMid meet">
<metadata>
Created by potrace 1.11, written by Peter Selinger 2001-2013
</metadata>
<g transform="translate(0.000000,700.000000) scale(0.100000,-0.100000)"
fill="#000000" stroke="none">
<path d="M0 4243 c1 -1517 5 -2778 10 -2803 4 -25 11 -65 15 -90 17 -119 80
-318 138 -436 187 -380 509 -670 901 -813 85 -31 213 -66 281 -76 22 -3 65 -9
95 -14 32 -6 1195 -10 2808 -10 l2752 -1 0 3500 0 3500 -577 -2 -576 -3 -136
-327 c-75 -180 -139 -330 -143 -333 -4 -4 -60 14 -125 40 -413 166 -738 260
-1033 300 -137 19 -398 25 -499 12 -237 -31 -414 -133 -522 -299 -59 -92 -81
-172 -85 -308 -4 -131 9 -201 57 -293 37 -71 47 -85 131 -168 78 -79 168 -142
339 -236 113 -62 218 -115 725 -366 458 -226 782 -438 1000 -654 95 -94 115
-117 179 -208 149 -208 234 -432 279 -735 13 -81 15 -458 3 -505 -2 -11 -8
-45 -12 -75 -9 -71 -38 -193 -65 -278 -111 -343 -341 -635 -672 -853 -180
-118 -460 -237 -668 -284 -8 -2 -53 -12 -100 -23 -47 -11 -105 -23 -130 -26
-25 -4 -54 -8 -65 -10 -11 -2 -45 -7 -75 -11 -30 -3 -68 -8 -85 -11 -171 -25
-712 -24 -935 2 -114 13 -273 36 -350 50 -47 9 -96 18 -110 21 -191 34 -580
163 -770 256 l-65 32 0 613 c0 338 3 616 7 618 4 3 33 -7 64 -21 227 -104 608
-250 839 -321 214 -67 534 -135 700 -150 39 -3 84 -8 100 -10 46 -6 315 -6
355 0 19 3 57 8 84 11 194 24 363 96 480 206 148 138 203 358 152 606 -9 45
-66 150 -113 208 -98 121 -266 246 -498 370 -92 50 -410 209 -709 355 -173 85
-406 214 -463 256 -17 13 -34 24 -37 24 -9 0 -196 136 -236 171 -128 113 -243
239 -327 356 -26 38 -51 70 -55 71 -5 2 -8 8 -8 14 0 5 -8 22 -18 36 -83 119
-185 374 -208 521 -2 14 -6 35 -9 46 -27 126 -27 546 0 670 3 11 7 31 9 45 27
167 104 378 192 527 l43 73 -1130 0 -1129 0 0 -2757z"/>
</g>
</svg>
